squats_1_grf
version=1
nRows=34
nColumns=19
inDegrees=no
endheader
time	ground_force_right_vx	ground_force_right_vy	ground_force_right_vz	ground_force_right_px	ground_force_right_py	ground_force_right_pz	ground_force_right_mx	ground_force_right_my	ground_force_right_mz	ground_force_left_vx	ground_force_left_vy	ground_force_left_vz	ground_force_left_px	ground_force_left_py	ground_force_left_pz	ground_force_left_mx	ground_force_left_my	ground_force_left_mz
     30.28000000	     18.93282334	    350.46966898	     51.51759687	     -3.45447055	      0.00749198	      2.26884984	     -0.01394684	      4.78480718	      0.02166442	      4.08302722	    380.85677732	    -61.72681533	     -3.41322297	      0.00826180	      2.74160496	      0.01373082	     -4.13266995	      0.00717629
     30.28100000	     18.98185142	    349.78958654	     51.44048087	     -3.45428265	      0.00749272	      2.26880776	     -0.01398139	      4.79665942	      0.02171808	      4.39431113	    381.93970172	    -62.03353618	     -3.41322846	      0.00826187	      2.74165495	      0.01375099	     -4.13874117	      0.00718683
     30.28200000	     19.03592078	    349.09070057	     51.36088012	     -3.45408423	      0.00749349	      2.26876542	     -0.01401841	      4.80936034	      0.02177559	      4.70725814	    383.08739084	    -62.35443463	     -3.41323055	      0.00826195	      2.74170669	      0.01377382	     -4.14561276	      0.00719877
     30.28300000	     19.09468679	    348.37606358	     51.27908914	     -3.45387524	      0.00749429	      2.26872307	     -0.01405797	      4.82293198	      0.02183704	      5.01949920	    384.29900893	    -62.68877956	     -3.41322878	      0.00826205	      2.74176002	      0.01379946	     -4.15332993	      0.00721217
     30.28400000	     19.15770264	    347.64888485	     51.19541804	     -3.45365564	      0.00749512	      2.26868095	     -0.01410013	      4.83739527	      0.02190252	      5.32857841	    385.57340809	    -63.03575638	     -3.41322270	      0.00826217	      2.74181476	      0.01382805	     -4.16193473	      0.00722711
     30.28500000	     19.22441816	    346.91249832	     51.11018928	     -3.45342539	      0.00749598	      2.26863931	     -0.01414494	      4.85276994	      0.02197213	      5.63197765	    386.90913337	    -63.39447394	     -3.41321186	      0.00826230	      2.74187073	      0.01385972	     -4.17146543	      0.00724366
     30.28600000	     19.29418044	    346.17032915	     51.02373444	     -3.45318446	      0.00749687	      2.26859839	     -0.01419247	      4.86907443	      0.02204596	      5.92714234	    388.30443000	    -63.76397207	     -3.41319582	      0.00826245	      2.74192772	      0.01389457	     -4.18195596	      0.00726188
     30.28700000	     19.36623625	    345.42585963	     50.93639099	     -3.45293281	      0.00749778	      2.26855842	     -0.01424275	      4.88632574	      0.02212407	      6.21150811	    389.75725279	    -64.14322954	     -3.41317416	      0.00826262	      2.74198556	      0.01393271	     -4.19343542	      0.00728181
     30.28800000	     19.43973642	    344.68259478	     50.84849930	     -3.45267042	      0.00749872	      2.26851962	     -0.01429584	      4.90453928	      0.02220653	      6.48252797	    391.26527750	    -64.53117253	     -3.41314650	      0.00826282	      2.74204404	      0.01397422	     -4.20592762	      0.00730350
     30.28900000	     19.51374201	    343.94402811	     50.76039966	     -3.45239727	      0.00749969	      2.26848221	     -0.01435177	      4.92372877	      0.02229342	      6.73769968	    392.82591425	    -64.92668344	     -3.41311248	      0.00826303	      2.74210298	      0.01401915	     -4.21945076	      0.00732698
     30.29000000	     19.58723247	    343.21360788	     50.67242959	     -3.45211335	      0.00750068	      2.26844637	     -0.01441059	      4.94390601	      0.02238478	      6.97459280	    394.43632262	    -65.32860980	     -3.41307176	      0.00826327	      2.74216219	      0.01406755	     -4.23401711	      0.00735228
     30.29100000	     19.65911552	    342.49470430	     50.58492136	     -3.45181864	      0.00750169	      2.26841229	     -0.01447231	      4.96508079	      0.02248065	      7.19087522	    396.09342850	    -65.73577346	     -3.41302407	      0.00826353	      2.74222149	      0.01411943	     -4.24963287	      0.00737939
     30.29200000	     19.72823860	    341.79057798	     50.49819980	     -3.45151313	      0.00750273	      2.26838014	     -0.01453696	      4.98726065	      0.02258107	      7.38433873	    397.79394232	    -66.14697967	     -3.41296916	      0.00826382	      2.74228071	      0.01417480	     -4.26629808	      0.00740833
     30.29300000	     19.79340184	    341.10434987	     50.41258045	     -3.45119681	      0.00750379	      2.26835007	     -0.01460455	      5.01045074	      0.02268607	      7.55292318	    399.53437852	    -66.56102612	     -3.41290684	      0.00826413	      2.74233968	      0.01423364	     -4.28400660	      0.00743908
     30.29400000	     19.85337209	    340.43897305	     50.32836792	     -3.45086970	      0.00750487	      2.26832220	     -0.01467510	      5.03465367	      0.02279566	      7.69473908	    401.31107603	    -66.97671181	     -3.41283695	      0.00826446	      2.74239826	      0.01429590	     -4.30274622	      0.00747162
     30.29500000	     19.90689785	    339.79720665	     50.24585462	     -3.45053180	      0.00750597	      2.26829665	     -0.01474860	      5.05986931	      0.02290983	      7.80808818	    403.12021947	    -67.39284564	     -3.41275941	      0.00826482	      2.74245631	      0.01436153	     -4.32249886	      0.00750592
     30.29600000	     19.95272478	    339.18159194	     50.16531971	     -3.45018315	      0.00750709	      2.26827352	     -0.01482504	      5.08609467	      0.02302857	      7.89148181	    404.95786085	    -67.80825467	     -3.41267417	      0.00826520	      2.74251370	      0.01443044	     -4.34324075	      0.00754194
     30.29700000	     19.98961134	    338.59443097	     50.08702826	     -3.44982379	      0.00750823	      2.26825289	     -0.01490441	      5.11332377	      0.02315186	      7.94365672	    406.81994151	    -68.22179194	     -3.41258124	      0.00826561	      2.74257031	      0.01450255	     -4.36494283	      0.00757963
     30.29800000	     20.01634438	    338.03776776	     50.01123055	     -3.44945377	      0.00750939	      2.26823480	     -0.01498668	      5.14154751	      0.02327965	      7.96358821	    408.70231394	    -68.63234375	     -3.41248070	      0.00826604	      2.74262605	      0.01457773	     -4.38757107	      0.00761892
     30.29900000	     20.03175414	    337.51337228	     49.93816155	     -3.44907317	      0.00751057	      2.26821932	     -0.01507181	      5.17075358	      0.02341189	      7.95050034	    410.60076341	    -69.03883633	     -3.41237265	      0.00826649	      2.74268082	      0.01465586	     -4.41108691	      0.00765976
     30.30000000	     20.03472862	    337.02272711	     49.86804045	     -3.44868211	      0.00751177	      2.26820646	     -0.01515976	      5.20092642	      0.02354850	      7.90387319	    412.51102898	    -69.44024185	     -3.41225727	      0.00826697	      2.74273457	      0.01473680	     -4.43544769	      0.00770206
     30.30100000	     20.02422667	    336.56701711	     49.80107026	     -3.44828071	      0.00751298	      2.26819623	     -0.01525047	      5.23204713	      0.02368941	      7.82344699	    414.42882382	    -69.83558359	     -3.41213478	      0.00826747	      2.74278722	      0.01482039	     -4.46060716	      0.00774575
     30.30200000	     19.99928986	    336.14712187	     49.73743738	     -3.44786913	      0.00751422	      2.26818864	     -0.01534388	      5.26409350	      0.02383451	      7.70922316	    416.34985457	    -70.22394046	     -3.41200544	      0.00826799	      2.74283873	      0.01490647	     -4.48651593	      0.00779074
     30.30300000	     19.95905275	    335.76361114	     49.67731118	     -3.44744756	      0.00751547	      2.26818365	     -0.01543991	      5.29703999	      0.02398368	      7.56146230	    418.26983974	    -70.60445056	     -3.41186957	      0.00826853	      2.74288908	      0.01499487	     -4.51312199	      0.00783694
     30.30400000	     19.90275135	    335.41674312	     49.62084336	     -3.44701624	      0.00751674	      2.26818124	     -0.01553848	      5.33085777	      0.02413680	      7.38067921	    420.18452679	    -70.97631402	     -3.41172751	      0.00826908	      2.74293823	      0.01508541	     -4.54037120	      0.00788426
     30.30500000	     19.82972985	    335.10646562	     49.56816728	     -3.44657542	      0.00751802	      2.26818136	     -0.01563950	      5.36551475	      0.02429372	      7.16763519	    422.08970803	    -71.33879508	     -3.41157965	      0.00826966	      2.74298620	      0.01517790	     -4.56820775	      0.00793259
     30.30600000	     19.73944538	    334.83242001	     49.51939695	     -3.44612539	      0.00751932	      2.26818395	     -0.01574286	      5.40097567	      0.02445427	      6.92332762	    423.98123517	    -71.69122348	     -3.41142643	      0.00827025	      2.74303298	      0.01527215	     -4.59657468	      0.00798185
     30.30700000	     19.63147091	    334.59394779	     49.47462581	     -3.44566648	      0.00752063	      2.26818894	     -0.01584846	      5.43720221	      0.02461830	      6.64897725	    425.85503248	    -72.03299514	     -3.41126827	      0.00827085	      2.74307860	      0.01536797	     -4.62541430	      0.00803193
     30.30800000	     19.50549640	    334.39009974	     49.43392531	     -3.44519907	      0.00752196	      2.26819624	     -0.01595616	      5.47415306	      0.02478560	      6.34601338	    427.70710869	    -72.36357241	     -3.41110568	      0.00827147	      2.74312307	      0.01546516	     -4.65466861	      0.00808273
     30.30900000	     19.36132828	    334.21964756	     49.39734315	     -3.44472356	      0.00752331	      2.26820576	     -0.01606585	      5.51178410	      0.02495599	      6.01605713	    429.53356763	    -72.68248371	     -3.41093913	      0.00827210	      2.74316645	      0.01556355	     -4.68427976	      0.00813415
     30.31000000	     19.19888746	    334.08109771	     49.36490138	     -3.44424038	      0.00752466	      2.26821742	     -0.01617738	      5.55004856	      0.02512924	      5.66090323	    431.33061771	    -72.98932277	     -3.41076914	      0.00827274	      2.74320879	      0.01566292	     -4.71419034	      0.00818609
     30.31100000	     19.01820596	    333.97270750	     49.33659427	     -3.44375000	      0.00752603	      2.26823109	     -0.01629062	      5.58889727	      0.02530514	      5.28250062	    433.09458035	    -73.28374753	     -3.41059624	      0.00827338	      2.74325015	      0.01576311	     -4.74434375	      0.00823845
     30.31200000	     18.81942252	    333.89250303	     49.31238619	     -3.44325292	      0.00752741	      2.26824669	     -0.01640541	      5.62827885	      0.02548345	      4.88293208	    434.82189762	    -73.56547858	     -3.41042096	      0.00827404	      2.74329059	      0.01586392	     -4.77468449	      0.00829114
     30.31300000	     18.60277718	    333.83829902	     49.29220940	     -3.44274967	      0.00752880	      2.26826408	     -0.01652160	      5.66814008	      0.02566393	      4.46439333	    436.50913903	    -73.83429737	     -3.41024383	      0.00827469	      2.74333021	      0.01596517	     -4.80515840	      0.00834405
